<svg width="101" height="48" viewBox="0 0 101 48" fill="none" xmlns="http://www.w3.org/2000/svg">
<path d="M97.8678 40.2553C97.5563 41.1436 97.2872 43.2162 96.1842 43.3756C94.6948 43.5907 94.7039 41.9741 94.702 40.9364C94.6983 38.8959 96.0288 36.0549 95.3949 34.128C83.5083 43.5247 68.7329 48.0831 52.7777 46.9194C36.9082 45.7619 19.2014 39.3922 8.53524 26.0977C3.31471 19.5908 -0.206639 11.8679 0.278096 3.78622C0.319674 3.09275 0.363392 -0.359171 1.68272 0.336548C2.37051 0.699208 2.27054 5.12684 2.37783 5.93111C2.93518 10.1122 4.18888 14.0251 6.26518 17.8295C13.34 30.7925 27.7668 38.8662 41.4619 41.9713C50.5341 44.0282 60.0899 44.1469 68.9342 42.445C73.4993 41.5666 78.0362 40.2263 82.1586 38.243C85.6357 36.5702 91.4326 33.9582 93.4924 30.5877C89.936 29.6535 85.6449 32.0631 82.0028 31.6406C80.0733 31.4169 78.3562 29.755 80.2383 28.3666C81.764 27.2409 85.286 27.603 87.187 27.4538C89.3083 27.2873 91.4292 27.1907 93.5746 27.2237C95.1483 27.2479 98.4753 26.6485 99.7448 27.829C101.989 29.9165 98.5893 37.9458 97.8678 40.2553C98.1688 39.2917 97.5421 41.184 97.8678 40.2553Z" fill="#FFCCA6"/>
</svg>
