<svg width="96" height="71" viewBox="0 0 96 71" fill="none" xmlns="http://www.w3.org/2000/svg">
<path d="M1.60645 60.2239C1.24732 59.3574 0.0879433 57.6923 0.758885 56.721C1.6649 55.4096 2.71018 56.552 3.38658 57.2793C4.71666 58.7094 5.63044 61.7411 7.32918 62.6004C9.56379 46.741 16.9745 32.0288 28.9364 20.4159C40.8341 8.86543 57.4128 -0.456041 73.552 0.570614C81.4513 1.07309 88.9484 3.75324 93.8655 9.80641C94.2874 10.3258 96.5024 12.784 95.1233 13.3233C94.4043 13.6044 91.5941 10.4172 90.9956 9.93595C87.8842 7.43393 84.4582 5.66272 80.5251 4.60858C67.1236 1.01684 51.7398 6.58627 40.1021 15.0751C32.3929 20.6984 25.6049 28.0596 20.5011 36.1451C17.8666 40.3185 15.5524 44.7942 13.9476 49.3986C12.594 53.2822 10.2222 59.6328 10.9684 63.6045C14.0737 61.4899 15.5196 56.4546 18.3522 53.9139C19.8528 52.5678 22.1398 52.3972 21.7213 54.8385C21.3821 56.8177 18.6732 59.3072 17.4352 60.893C16.0539 62.6625 14.6273 64.3827 13.0992 66.0309C11.9782 67.2399 10.0317 70.2529 8.37222 70.4128C5.43786 70.6956 2.6022 62.408 1.60645 60.2239C2.0219 61.1352 1.23099 59.318 1.60645 60.2239Z" fill="#FFCCA6"/>
</svg>
