<?xml version="1.0" encoding="UTF-8"?>
<!DOCTYPE svg PUBLIC "-//W3C//DTD SVG 1.1//EN" "http://www.w3.org/Graphics/SVG/1.1/DTD/svg11.dtd">
<!-- Creator: CorelDRAW 2019 (64-Bit) -->
<svg xmlns="http://www.w3.org/2000/svg" xml:space="preserve" width="95.939mm" height="49.3838mm" version="1.1" style="shape-rendering:geometricPrecision; text-rendering:geometricPrecision; image-rendering:optimizeQuality; fill-rule:evenodd; clip-rule:evenodd"
viewBox="0 0 9506.37 4893.32"
 xmlns:xlink="http://www.w3.org/1999/xlink"
 xmlns:xodm="http://www.corel.com/coreldraw/odm/2003">
 <defs>
  <style type="text/css">
   <![CDATA[
    .fil0 {fill:#2D3B7E}
    .fil2 {fill:#2D3B7E;fill-rule:nonzero}
    .fil3 {fill:#00A0E3;fill-rule:nonzero}
    .fil1 {fill:#2A3B7E;fill-rule:nonzero}
   ]]>
  </style>
 </defs>
 <g id="Layer_x0020_1">
  <metadata id="CorelCorpID_0Corel-Layer"/>
  <g id="_1836939635312">
   <polygon class="fil0" points="653.02,4784.73 652.97,3124.12 86.51,3690.62 86.51,4784.78 "/>
   <polygon class="fil0" points="652.96,3124.12 86.46,3124.12 86.46,2557.63 652.96,2557.63 "/>
   <path class="fil1" d="M4224.81 3691.68c0,-200.3 -64.44,-370.3 -193.31,-509.27 -128.87,-138.97 -286.45,-208.05 -472.79,-208.05 -184.75,0 -342.35,69.08 -471.98,208.05 -129.65,138.97 -194.09,308.97 -194.09,509.27 0,200.27 64.45,370.3 194.09,509.25 129.64,138.97 287.24,208.05 471.98,208.05 184.78,0 342.36,-69.08 472.01,-208.05 129.65,-138.95 194.08,-308.98 194.08,-509.25zm-1853.85 -4.67c0,-157.58 30.28,-306.65 90.05,-446.37 59.77,-140.53 145.96,-265.52 257.73,-374.19 111.02,-107.92 238.35,-190.2 382.74,-248.41 144.39,-57.46 294.99,-86.19 452.59,-86.19 162.26,0 315.19,28.73 458.81,86.19 142.83,58.21 271.71,142.83 385.82,254.62 113.36,111.02 199.52,236 259.31,375.75 58.99,138.94 88.5,285.68 88.5,438.61 0,159.15 -29.51,308.97 -87.74,447.95 -58.21,139.72 -143.62,263.16 -256.17,371.06 -118,113.36 -249.21,199.51 -393.61,257.75 -143.62,58.21 -295.77,87.71 -454.91,87.71 -156.04,0 -306.64,-29.5 -450.25,-87.71 -144.4,-58.23 -272.49,-142.83 -385.07,-253.08 -113.33,-112.57 -199.51,-238.34 -259.28,-378.07 -58.99,-138.97 -88.5,-288.01 -88.5,-445.61z"/>
   <path class="fil1" d="M8984.69 3691.68c0,-200.3 -64.44,-370.3 -193.32,-509.27 -128.87,-138.97 -286.45,-208.05 -472.78,-208.05 -184.76,0 -342.36,69.08 -471.99,208.05 -129.65,138.97 -194.08,308.97 -194.08,509.27 0,200.27 64.44,370.3 194.08,509.25 129.64,138.97 287.24,208.05 471.99,208.05 184.77,0 342.35,-69.08 472,-208.05 129.66,-138.95 194.09,-308.98 194.09,-509.25zm-1853.86 -4.67c0,-157.58 30.29,-306.65 90.05,-446.37 59.77,-140.53 145.96,-265.52 257.74,-374.19 111.02,-107.92 238.34,-190.2 382.73,-248.41 144.4,-57.46 294.99,-86.19 452.6,-86.19 162.25,0 315.18,28.73 458.8,86.19 142.83,58.21 271.72,142.83 385.83,254.62 113.36,111.02 199.51,236 259.3,375.75 58.99,138.94 88.5,285.68 88.5,438.61 0,159.15 -29.51,308.97 -87.74,447.95 -58.2,139.72 -143.62,263.16 -256.17,371.06 -117.99,113.36 -249.21,199.51 -393.61,257.75 -143.62,58.21 -295.77,87.71 -454.9,87.71 -156.05,0 -306.65,-29.5 -450.26,-87.71 -144.4,-58.23 -272.49,-142.83 -385.06,-253.08 -113.34,-112.57 -199.52,-238.34 -259.29,-378.07 -58.99,-138.97 -88.5,-288.01 -88.5,-445.61z"/>
   <path class="fil0" d="M652.96 3124.12l0.01 0 566.49 -566.49 163.89 0c401.71,0 730.37,328.66 730.37,730.37l0 1496.78 -566.49 0 0 -1362.73c0,-163.85 -134.07,-297.93 -297.94,-297.93l-596.33 0 -0.01 -566.49 0 566.49z"/>
   <polygon class="fil2" points="5937.06,4893.32 4805.98,2606.27 5345.51,2606.27 5937.06,3840.68 6533.29,2606.27 7069.72,2606.27 "/>
   <path class="fil3" d="M778.06 358.5l0 1566.26 -294.94 0 0 -1566.26 -483.11 0 0 -251.72 1258.62 0 0 251.72 -480.56 0zm1536.18 1566.26l-269.52 0 0 -152.13c-47.89,67.37 -104.26,117.81 -168.23,150.87 -64.42,33.04 -137.74,49.58 -220.8,49.58 -166.11,0 -297.48,-56.79 -392.82,-170.79 -95.79,-113.58 -143.66,-269.52 -143.66,-467.43 0,-187.73 48.71,-339.44 146.61,-454.71 97.91,-115.68 225.44,-173.32 382.67,-173.32 96.19,0 178.42,19.93 246.64,60.2 68.24,39.82 118.24,97.45 149.59,172.47l0 -191.97 269.52 0 0 1177.23zm-261.89 -592.42c0,-121.63 -28.4,-216.55 -85.19,-284.34 -56.79,-68.24 -136.03,-102.15 -237.73,-102.15 -102.13,0 -182.22,35.18 -240.28,105.1 -58.48,69.93 -87.72,167.39 -87.72,291.55 0,125.03 27.97,221.64 84.32,289.43 56.36,68.24 136.03,102.15 238.6,102.15 97.04,0 175.86,-36.89 236.44,-110.62 61.04,-73.73 91.55,-170.77 91.55,-291.12zm645.82 592.42l0 -1924.76 269.53 0 0 1924.76 -269.53 0zm1787.9 -549.2l-940.79 0c6.78,110.18 39.43,196.2 98.32,258.08 58.48,61.86 136.88,92.81 234.78,92.81 86.87,0 159.34,-18.23 216.97,-54.68 58.06,-36.43 108.48,-95.34 151.71,-176.7l226.29 126.7c-66.11,118.65 -147.91,206.38 -245.79,264.44 -97.48,58.06 -212.31,86.88 -343.7,86.88 -188.99,0 -339.02,-57.64 -450.88,-172.48 -111.46,-115.27 -167.39,-268.67 -167.39,-460.65 0,-184.77 57.64,-336.04 173.32,-455.13 115.27,-118.65 263.57,-177.99 444.94,-177.99 189.45,0 337.33,54.25 443.29,162.74 105.92,108.06 158.91,260.19 158.91,455.13l0 50.85zm-279.69 -180.53c-10.58,-84.33 -42.8,-148.75 -96.61,-192.82 -53.83,-44.49 -127.57,-66.53 -220.8,-66.53 -88.56,0 -159.76,21.61 -213.58,64.42 -53.39,43.22 -91.1,108.06 -112.71,194.94l643.7 0zm559.82 729.73l0 -1177.23 253.42 0 0 193.24c53.8,-81.36 116.95,-140.7 189.84,-177.99 72.89,-37.29 161.45,-55.94 266.13,-55.94 87.72,0 162.3,13.99 224.18,41.54 61.43,27.97 109.75,69.08 144.51,123.74 20.77,32.21 35.59,69.93 44.92,113.15 8.89,42.81 13.56,118.23 13.56,225.87l0 713.63 -272.06 0 0 -604.31c0,-154.67 -18.63,-257.64 -56.34,-308.49 -37.73,-50.85 -104.69,-76.29 -200.87,-76.29 -62.73,0 -119.09,11.45 -168.26,34.76 -49.14,23.3 -88.14,55.93 -116.11,97.88 -19.9,28.39 -33.89,64.41 -41.51,108.93 -8.06,44.06 -11.88,114.4 -11.88,211.45l0 536.06 -269.51 0zm1558.19 0l0 -940.77 -205.94 0 0 -236.46 205.94 0 0 -444.97 269.54 0 0 444.97 205.94 0 0 236.46 -205.94 0 0 940.77 -269.54 0z"/>
  </g>
 </g>
</svg>
