<svg width="363" height="187" viewBox="0 0 363 187" fill="none" xmlns="http://www.w3.org/2000/svg">
<g clip-path="url(#clip0_7416_9074)">
<path fill-rule="evenodd" clip-rule="evenodd" d="M24.9054 182.505L24.9035 119.164L3.29688 140.772V182.507L24.9054 182.505Z" fill="white"/>
<path fill-rule="evenodd" clip-rule="evenodd" d="M24.905 119.164H3.29688V97.5564H24.905V119.164Z" fill="white"/>
<path d="M161.149 140.813C161.149 133.173 158.691 126.688 153.776 121.387C148.86 116.087 142.85 113.452 135.742 113.452C128.695 113.452 122.684 116.087 117.739 121.387C112.794 126.688 110.336 133.173 110.336 140.813C110.336 148.452 112.794 154.937 117.739 160.237C122.684 165.538 128.696 168.173 135.742 168.173C142.79 168.173 148.801 165.538 153.746 160.237C158.691 154.937 161.149 148.452 161.149 140.813H161.149ZM90.4375 140.635C90.4375 134.624 91.5925 128.938 93.8723 123.609C96.1521 118.248 99.4397 113.481 103.703 109.336C107.938 105.219 112.794 102.081 118.302 99.8606C123.809 97.6689 129.554 96.573 135.565 96.573C141.754 96.573 147.588 97.6689 153.066 99.8606C158.514 102.081 163.43 105.309 167.782 109.573C172.106 113.807 175.392 118.574 177.673 123.905C179.923 129.205 181.049 134.802 181.049 140.635C181.049 146.705 179.923 152.42 177.702 157.721C175.482 163.051 172.224 167.759 167.931 171.875C163.43 176.199 158.425 179.485 152.917 181.706C147.439 183.926 141.636 185.052 135.566 185.052C129.614 185.052 123.869 183.926 118.392 181.706C112.884 179.485 107.998 176.258 103.704 172.053C99.381 167.759 96.0938 162.962 93.8139 157.632C91.5639 152.331 90.4383 146.646 90.4383 140.635L90.4375 140.635Z" fill="white"/>
<path d="M342.704 140.813C342.704 133.173 340.247 126.688 335.331 121.387C330.415 116.087 324.404 113.452 317.297 113.452C310.25 113.452 304.239 116.087 299.294 121.387C294.349 126.688 291.891 133.173 291.891 140.813C291.891 148.452 294.349 154.937 299.294 160.237C304.239 165.538 310.25 168.173 317.297 168.173C324.345 168.173 330.356 165.538 335.301 160.237C340.247 154.937 342.704 148.452 342.704 140.813H342.704ZM271.992 140.635C271.992 134.624 273.148 128.938 275.427 123.609C277.707 118.248 280.994 113.481 285.258 109.336C289.493 105.219 294.349 102.081 299.857 99.8606C305.365 97.6689 311.109 96.573 317.12 96.573C323.309 96.573 329.142 97.6689 334.62 99.8606C340.068 102.081 344.985 105.309 349.337 109.573C353.661 113.807 356.947 118.574 359.228 123.905C361.478 129.205 362.603 134.802 362.603 140.635C362.603 146.705 361.478 152.42 359.257 157.721C357.037 163.051 353.779 167.759 349.486 171.875C344.985 176.199 339.98 179.485 334.472 181.706C328.994 183.926 323.19 185.052 317.121 185.052C311.168 185.052 305.424 183.926 299.946 181.706C294.438 179.485 289.553 176.258 285.259 172.053C280.936 167.759 277.648 162.962 275.369 157.632C273.119 152.331 271.993 146.646 271.993 140.635L271.992 140.635Z" fill="white"/>
<path fill-rule="evenodd" clip-rule="evenodd" d="M24.9066 119.164H24.907L46.5148 97.5564H52.7661C68.0886 97.5564 80.6248 110.093 80.6248 125.415V182.507H59.017V130.528C59.017 124.278 53.9032 119.164 47.6526 119.164H24.9066L24.9062 97.5564V119.164H24.9066Z" fill="white"/>
<path d="M226.456 186.647L183.312 99.4116H203.892L226.456 146.496L249.198 99.4116H269.659L226.456 186.647Z" fill="white"/>
<path d="M29.6774 13.6744V73.4167H18.4274V13.6744H0V4.07294H48.0079V13.6744H29.6778H29.6774ZM88.2723 73.4167H77.9919V67.6139C76.1653 70.1836 74.0151 72.1076 71.5751 73.3686C69.1179 74.6288 66.3212 75.2597 63.1531 75.2597C56.8171 75.2597 51.8062 73.0936 48.1696 68.7452C44.5159 64.4129 42.69 58.4649 42.69 50.9159C42.69 43.7553 44.5479 37.9686 48.2821 33.5718C52.0167 29.1594 56.8812 26.9608 62.8784 26.9608C66.5474 26.9608 69.684 27.721 72.2861 29.257C74.889 30.7759 76.7961 32.9741 77.9919 35.8356V28.5132H88.2723V73.4167ZM78.283 50.8198C78.283 46.1804 77.1997 42.5599 75.0335 39.9742C72.8674 37.3713 69.8449 36.0778 65.9657 36.0778C62.0702 36.0778 59.0153 37.4197 56.8007 40.0867C54.5701 42.754 53.4548 46.4715 53.4548 51.2073C53.4548 55.9764 54.5216 59.6614 56.671 62.2472C58.8207 64.8501 61.8596 66.1435 65.772 66.1435C69.4734 66.1435 72.4799 64.7364 74.7906 61.9241C77.1188 59.1118 78.2826 55.4104 78.2826 50.8198H78.283ZM102.917 73.4167V0H113.197V73.4167H102.917ZM171.113 52.4684H135.228C135.487 56.671 136.732 59.9521 138.978 62.3124C141.209 64.6719 144.2 65.8525 147.934 65.8525C151.247 65.8525 154.011 65.1571 156.21 63.7668C158.424 62.3772 160.347 60.1302 161.996 57.0269L170.628 61.8596C168.106 66.3853 164.986 69.7316 161.253 71.9462C157.534 74.1608 153.154 75.2601 148.143 75.2601C140.934 75.2601 135.211 73.0615 130.945 68.6812C126.693 64.2844 124.56 58.4332 124.56 51.1105C124.56 44.0627 126.758 38.2928 131.171 33.7503C135.568 29.2246 141.224 26.9612 148.142 26.9612C155.369 26.9612 161.009 29.0305 165.051 33.1686C169.091 37.2904 171.112 43.0931 171.112 50.5288V52.4684H171.113ZM160.445 45.5824C160.041 42.3657 158.812 39.9085 156.76 38.2276C154.706 36.5306 151.894 35.6899 148.338 35.6899C144.96 35.6899 142.244 36.5142 140.191 38.1471C138.155 39.7956 136.716 42.2689 135.892 45.5827H160.445V45.5824ZM181.798 73.4167V28.5132H191.464V35.8841C193.516 32.7807 195.925 30.5173 198.706 29.0949C201.486 27.6726 204.864 26.9612 208.857 26.9612C212.202 26.9612 215.047 27.4948 217.408 28.5457C219.751 29.6125 221.594 31.1806 222.92 33.2655C223.712 34.4941 224.277 35.9329 224.633 37.5814C224.972 39.2143 225.15 42.0911 225.15 46.1968V73.417H214.773V50.3667C214.773 44.467 214.062 40.5394 212.624 38.5999C211.185 36.6603 208.631 35.6899 204.962 35.6899C202.569 35.6899 200.42 36.1266 198.544 37.0158C196.67 37.9045 195.182 39.1491 194.115 40.7492C193.356 41.8321 192.823 43.206 192.532 44.9042C192.225 46.5848 192.079 49.2678 192.079 52.9696V73.4167H181.799H181.798ZM241.233 73.4167V37.5326H233.377V28.5132H241.233V11.5406H251.514V28.5132H259.369V37.5326H251.514V73.4167H241.233Z" fill="#00A0E3"/>
</g>
<defs>
<clipPath id="clip0_7416_9074">
<rect width="362.604" height="186.647" fill="white"/>
</clipPath>
</defs>
</svg>
