<svg width="223" height="223" fill="none" xmlns="http://www.w3.org/2000/svg"><g clip-path="url(#a)" fill="#99CAFF"><path d="M190.342 32.658C169.283 11.598 141.283 0 111.5 0S53.717 11.598 32.658 32.658C11.598 53.718 0 81.718 0 111.5c0 29.783 11.598 57.783 32.658 78.842C53.718 211.402 81.718 223 111.5 223c29.783 0 57.783-11.598 78.842-32.658C211.402 169.283 223 141.283 223 111.5s-11.598-57.783-32.658-78.842Zm-5.108 152.576c-19.695 19.695-45.881 30.541-73.734 30.541-27.853 0-54.039-10.846-73.734-30.541C18.071 165.539 7.225 139.353 7.225 111.5c0-27.853 10.846-54.039 30.541-73.734C57.461 18.071 83.647 7.225 111.5 7.225c27.853 0 54.039 10.846 73.734 30.541 19.695 19.695 30.541 45.881 30.541 73.734 0 27.853-10.846 54.039-30.541 73.734Z"/><path d="M111.502 15.413c-52.983 0-96.088 43.104-96.088 96.087 0 52.983 43.105 96.088 96.088 96.088s96.087-43.105 96.087-96.088-43.104-96.087-96.087-96.087Zm3.612 184.87V184.71a3.613 3.613 0 0 0-7.225 0v15.573c-46.131-1.854-83.316-39.039-85.17-85.171h15.573a3.612 3.612 0 1 0 0-7.224H22.718c1.855-46.132 39.04-83.317 85.171-85.171V38.29a3.613 3.613 0 0 0 7.225 0V22.717c46.131 1.854 83.317 39.04 85.171 85.171h-15.574a3.612 3.612 0 1 0 0 7.224h15.574c-1.854 46.132-39.04 83.317-85.171 85.171Z"/><path d="M160.124 58.108 90.767 88.933a3.611 3.611 0 0 0-1.834 1.834l-30.825 69.357a3.613 3.613 0 0 0 4.768 4.768l69.356-30.825a3.61 3.61 0 0 0 1.834-1.834l30.826-69.357a3.614 3.614 0 0 0-4.768-4.768ZM93.4 98.508l5.129 5.129a15.085 15.085 0 0 0-2.2 7.863c0 8.366 6.805 15.172 15.171 15.172 2.876 0 5.568-.805 7.863-2.201l5.129 5.13-55.967 24.874L93.4 98.508Zm18.1 20.939c-4.382 0-7.947-3.565-7.947-7.947s3.565-7.947 7.947-7.947 7.947 3.565 7.947 7.947-3.565 7.947-7.947 7.947Zm18.101 5.045-5.13-5.129a15.084 15.084 0 0 0 2.201-7.863c0-8.366-6.806-15.172-15.172-15.172-2.876 0-5.568.805-7.863 2.201l-5.13-5.13 55.969-24.874-24.875 55.967Z"/></g><defs><clipPath id="a"><path fill="#fff" d="M0 0h223v223H0z"/></clipPath></defs></svg>