<svg width="234" height="242" fill="none" xmlns="http://www.w3.org/2000/svg"><path d="M26.172 44.61a25.6 25.6 0 1 0 14.541 46.592l33.639 32.358a37.967 37.967 0 0 0 .332 45.415l-25.984 25.6a25.776 25.776 0 0 0-34.25 4.859 25.778 25.778 0 1 0 41.418 2.437l26.01-25.6a38.14 38.14 0 0 0 43.747 1.991 38.147 38.147 0 0 0 11.088-10.747l35.021 17.639a30.982 30.982 0 0 0-1.459 9.421 31.69 31.69 0 0 0 26.626 31.409 31.693 31.693 0 1 0-20.534-49.969l-35.071-17.664a37.627 37.627 0 0 0-1.716-29.031l15.36-10.086a24.319 24.319 0 0 0 32.508.95 24.323 24.323 0 0 0 4.387-32.224 24.319 24.319 0 0 0-42.979 5.388 24.323 24.323 0 0 0 .324 17.412l-15.36 10.087a38.164 38.164 0 0 0-20.966-12.288l3.021-43.52a32.28 32.28 0 0 0 20.605-54.284 32.279 32.279 0 0 0-43.687-3.058 32.282 32.282 0 0 0 12.842 56.625l-3.047 43.52a37.942 37.942 0 0 0-21.299 8.217L47.881 83.804a25.268 25.268 0 0 0 3.994-13.62A25.6 25.6 0 0 0 26.172 44.61ZM201.84 173.25a21.328 21.328 0 0 1 20.916 25.485 21.325 21.325 0 0 1-42.24-4.16 21.347 21.347 0 0 1 21.324-21.325Zm-30.105-85.3a13.978 13.978 0 1 1 0 27.957 13.978 13.978 0 0 1 0-27.956ZM10.838 70.185a15.36 15.36 0 1 1 30.72 0 15.36 15.36 0 0 1-30.72 0ZM34.44 231.08a15.362 15.362 0 0 1-2.997-30.425 15.362 15.362 0 0 1 18.357 15.065 15.358 15.358 0 0 1-15.36 15.36Zm94.055-100.633a27.856 27.856 0 0 1 1.638 27.955 27.935 27.935 0 0 1-20.611 15.051 27.924 27.924 0 0 1-24.24-7.986 27.95 27.95 0 0 1-5.083-32.414 27.951 27.951 0 0 1 40.065-10.786 27.964 27.964 0 0 1 8.231 8.18Zm-37.428-97.51a22.015 22.015 0 1 1 22.016 22.015 22.04 22.04 0 0 1-22.016-22.016Z" fill="#99CAFF"/></svg>