<svg width="250" height="250" fill="none" xmlns="http://www.w3.org/2000/svg"><g clip-path="url(#a)" fill="#99CAFF"><path d="M151.367 92.773a4.885 4.885 0 0 0-4.883 4.883 4.885 4.885 0 0 0 4.883 4.883 4.885 4.885 0 0 0 4.883-4.883 4.885 4.885 0 0 0-4.883-4.883Z"/><path d="m244.278 216.66-65.176-65.176c10.618-15.993 16.21-34.514 16.21-53.828C195.312 43.81 151.504 0 97.656 0 43.81 0 0 43.809 0 97.656c0 53.848 43.809 97.656 97.656 97.656 19.315 0 37.835-5.593 53.828-16.209l18.015 18.015.008.007 47.152 47.153a19.404 19.404 0 0 0 13.81 5.722 19.397 19.397 0 0 0 13.807-5.721 19.393 19.393 0 0 0 5.724-13.81 19.392 19.392 0 0 0-5.722-13.809Zm-95.09-47.848-.001.001c-15.072 10.947-32.891 16.734-51.53 16.734-48.464 0-87.891-39.428-87.891-87.89 0-48.464 39.427-87.891 87.89-87.891s87.891 39.427 87.891 87.89c0 18.64-5.787 36.459-16.735 51.531a88.337 88.337 0 0 1-19.624 19.625Zm10.244 4.427a98.083 98.083 0 0 0 13.807-13.807l13.853 13.853a118.601 118.601 0 0 1-13.807 13.807l-13.853-13.853Zm77.941 64.134a9.704 9.704 0 0 1-6.904 2.861 9.702 9.702 0 0 1-6.904-2.861l-43.357-43.357a128.3 128.3 0 0 0 13.807-13.808l43.359 43.359a9.692 9.692 0 0 1 2.86 6.902 9.699 9.699 0 0 1-2.861 6.904Z"/><path d="M97.656 19.531c-43.078 0-78.125 35.047-78.125 78.125 0 43.079 35.047 78.125 78.125 78.125 43.079 0 78.125-35.046 78.125-78.125 0-43.078-35.046-78.125-78.125-78.125Zm0 146.485c-37.693 0-68.36-30.666-68.36-68.36 0-37.693 30.667-68.36 68.36-68.36 37.694 0 68.36 30.667 68.36 68.36 0 37.694-30.666 68.36-68.36 68.36Z"/><path d="M152.375 76.696c-4.204-10.944-11.525-20.3-21.171-27.057-9.876-6.92-21.477-10.577-33.548-10.577a4.883 4.883 0 0 0 0 9.766c20.068 0 38.394 12.607 45.604 31.37a4.884 4.884 0 0 0 6.309 2.807 4.882 4.882 0 0 0 2.806-6.31Z"/></g><defs><clipPath id="a"><path fill="#fff" d="M0 0h250v250H0z"/></clipPath></defs></svg>