<svg width="224" height="233" fill="none" xmlns="http://www.w3.org/2000/svg"><path d="m221.827 147.682-52.322-52.674c-1.214-1.222-2.961-1.923-4.794-1.923-1.833 0-3.58.7-4.794 1.923l-12.022 12.103v-43.06h16.145c2.549 0 4.784-1.284 5.832-3.35 1.048-2.067.65-4.407-1.037-6.105L116.512 1.923C115.299.7 113.551 0 111.719 0h-.001c-1.833 0-3.58.7-4.794 1.922L94.913 14.014c-1.4 1.41-1.25 3.563.335 4.808 1.584 1.245 4.005 1.112 5.406-.298l11.064-11.139 49.521 49.854h-17.174c-2.116 0-3.831 1.525-3.831 3.406v54.178l-32.639 32.859c-1.688 1.698-2.085 4.037-1.037 6.104 1.047 2.066 3.282 3.35 5.831 3.35h16.146v69.051H95.47V89.132h16.146c2.549 0 4.784-1.283 5.831-3.35 1.048-2.066.651-4.405-1.037-6.104L78.16 41.17l10.725-10.798c1.4-1.41 1.25-3.562-.335-4.808-1.586-1.245-4.006-1.112-5.406.298L73.049 36.024l-8.962-9.021c-1.213-1.221-2.96-1.922-4.793-1.922-1.833 0-3.58.7-4.794 1.922L2.177 79.678C.49 81.377.092 83.716 1.14 85.782c1.047 2.067 3.282 3.35 5.831 3.35h16.146v140.462c0 1.881 1.714 3.406 3.83 3.406h170.111c2.115 0 3.83-1.525 3.83-3.406v-28.295c0-1.881-1.715-3.406-3.83-3.406-2.116 0-3.83 1.525-3.83 3.406v24.889h-57.033V153.73c0-1.881-1.715-3.406-3.83-3.406H115.19l49.521-49.853 49.52 49.853h-17.174c-2.115 0-3.83 1.525-3.83 3.406v31.851c0 1.882 1.715 3.407 3.83 3.407 2.116 0 3.83-1.525 3.83-3.407v-28.444h16.146c2.549 0 4.784-1.284 5.831-3.351 1.049-2.067.651-4.406-1.037-6.104ZM87.81 85.726v140.462H30.777V85.726c0-1.881-1.714-3.406-3.83-3.406H9.774l49.52-49.853 49.521 49.853H91.64c-2.115 0-3.83 1.525-3.83 3.406Z" fill="#99CAFF"/></svg>